<svg width="117" height="107" viewBox="0 0 117 107" fill="none" xmlns="http://www.w3.org/2000/svg">
<path d="M101.184 89.5007C99.1194 88.9056 97.1691 88.3434 95.5222 87.7927C93.2997 87.0497 92.7799 86.7085 92.6649 86.5737C92.7856 86.4747 93.1675 86.3236 93.429 86.2204C94.3368 85.8614 95.5799 85.3698 95.6498 84.2514C95.7336 82.9031 94.3071 80.3099 81.0079 73.3884C70.7037 68.0254 67.4347 63.077 63.6495 57.347C61.5294 54.1376 59.3369 50.8187 55.7111 47.0362C54.703 45.9846 53.4176 44.8002 51.9295 43.4288C45.7662 37.7493 36.4526 29.1661 35.7988 18.8962C34.9723 5.8626 24.2708 0 16.9361 0L16.7552 0.000958306C12.0199 0.0606927 8.77632 2.82349 6.88909 5.13141C6.01246 6.20631 4.39856 7.56711 3.32562 8.30181C2.01838 9.19399 0.98986 10.2622 0.270145 11.4754C-0.0623066 12.0293 -0.0888167 12.5675 0.19563 12.9911C0.556025 13.5275 1.35169 13.7999 2.34045 13.6964C3.11569 13.6166 3.82537 13.5776 4.50998 13.5776C7.7306 13.5776 10.0617 14.4267 11.4377 16.1011C13.3988 18.487 13.3905 22.5256 11.4137 28.1039C5.79357 43.9645 4.1632 55.6907 6.4291 63.9532C9.34486 74.5907 13.3723 81.0727 27.2947 86.982C28.6285 87.548 30.108 88.0409 31.7044 88.4827C30.6966 91.2205 29.5846 93.9268 28.5873 95.6402C28.5124 95.7693 28.468 95.9214 28.4246 96.0683C28.4064 96.1299 28.3806 96.2178 28.3551 96.2852C28.137 96.1743 27.7182 95.8907 27.3406 95.6348C26.7212 95.2151 25.9502 94.6928 25.1327 94.2523C23.6148 93.4345 22.4369 93.0538 21.4263 93.0538C20.6511 93.0538 20.0822 93.278 19.6276 93.4975C19.5144 93.5521 19.2486 93.6805 19.3152 93.9415C19.3822 94.2037 19.6541 94.2159 19.9421 94.2283C20.6805 94.2603 22.5981 94.3443 24.4374 96.0868C23.6077 96.0654 21.7846 95.7425 18.8731 95.0994C18.5342 95.0247 18.1989 94.9892 17.8761 94.9892C15.4658 94.9892 14.2729 97.0362 13.8236 97.8051C13.7649 97.9057 13.7233 97.9913 13.6986 98.0229L13.5367 98.2232L13.7334 98.6324H13.9612C14.0708 98.6324 14.1346 98.5599 14.3048 98.4727C16.9938 97.0975 20.1352 96.8659 23.2566 97.8951C24.1669 98.1951 24.686 98.5733 24.9712 98.8694C24.8863 98.9272 24.806 98.9883 24.7272 99.0502C23.9204 99.0202 23.2777 99.0058 22.7454 99.0058C21.891 99.0058 21.4263 99.0422 20.8882 99.0847C20.3702 99.1253 19.7831 99.1716 18.6954 99.1921C17.9166 99.2068 17.1829 99.3138 16.5739 99.5019C14.8335 100.039 14.0085 101.051 13.9702 101.099L12.8678 102.532L12.8356 102.583C12.7066 102.843 12.6952 103.049 12.8019 103.195C12.9373 103.381 13.2053 103.426 13.5077 103.255C15.8348 101.943 17.7264 101.331 19.461 101.331C20.5784 101.331 21.5127 101.585 22.4162 101.831C23.291 102.07 24.1959 102.315 25.2298 102.315C25.6318 102.315 26.024 102.275 26.4299 102.201C27.0024 102.097 27.5387 101.976 28.0574 101.867C29.3733 101.589 30.51 101.334 31.751 101.334C32.3388 101.334 32.9321 101.392 33.5411 101.509C34.029 101.782 34.3106 102.061 34.4554 102.26C33.4494 102.219 32.6806 102.2 32.0598 102.2C31.2054 102.2 30.7407 102.236 30.2026 102.279C29.6846 102.319 29.0974 102.366 28.0098 102.386C27.231 102.401 26.4973 102.508 25.8883 102.696C24.1479 103.233 23.3229 104.245 23.2845 104.293L22.1822 105.726L22.15 105.777C22.021 106.037 22.0095 106.243 22.1163 106.389C22.2517 106.575 22.5197 106.62 22.822 106.449C25.1492 105.137 27.0407 104.525 28.7754 104.525C29.8927 104.525 30.827 104.779 31.7305 105.025C32.6054 105.264 33.5103 105.509 34.5442 105.509C34.9461 105.509 35.3384 105.469 35.7443 105.395C36.3168 105.291 36.8531 105.17 37.3718 105.061C38.6877 104.783 39.8244 104.528 41.0653 104.528C43.1772 104.528 45.3514 105.247 48.1153 106.93L48.2385 106.936H48.3492L48.5781 106.998L48.6763 106.882C48.7909 106.672 48.7909 106.672 47.9161 105.675C46.9055 104.522 44.2204 101.462 44.3927 100.636C44.8617 98.3922 46.0485 94.7133 47.2576 91.2253C49.6106 91.516 52.0556 91.7955 54.5837 92.083C60.3834 92.7427 66.9572 93.4908 73.7402 94.5459C76.8877 95.0359 80.2044 95.5837 83.4117 96.1133C93.7561 97.8223 104.453 99.5891 110.671 99.5891C113.537 99.5891 115.325 99.2183 116.139 98.4554C116.507 98.1104 116.679 97.6894 116.652 97.2039C116.467 93.9057 108.347 91.5652 101.184 89.5007ZM37.7397 99.263C37.7215 99.3246 37.6957 99.4125 37.6702 99.4799C37.4521 99.369 37.0333 99.0854 36.6557 98.8295C36.2143 98.5305 35.6938 98.1798 35.1367 97.8431C35.0798 97.6814 35.0568 97.5454 35.078 97.4435C35.4699 95.5687 36.363 92.6912 37.3514 89.761C38.6687 90.0057 40.0443 90.2309 41.4651 90.4443C40.3474 93.5799 39.0491 96.8637 37.902 98.8349C37.8272 98.964 37.7827 99.116 37.7397 99.263Z" fill="#19D3DA"/>
</svg>
